<svg width="32" height="32" viewBox="0 0 32 32" fill="none" xmlns="http://www.w3.org/2000/svg">
<path d="M24.81 8H6.19C6.0855 8 6 8.08437 6 8.1875V9.6875C6 9.79062 6.0855 9.875 6.19 9.875H24.81C24.9145 9.875 25 9.79062 25 9.6875V8.1875C25 8.08437 24.9145 8 24.81 8ZM24.81 22.625H6.19C6.0855 22.625 6 22.7094 6 22.8125V24.3125C6 24.4156 6.0855 24.5 6.19 24.5H24.81C24.9145 24.5 25 24.4156 25 24.3125V22.8125C25 22.7094 24.9145 22.625 24.81 22.625ZM24.81 15.3125H6.19C6.0855 15.3125 6 15.3969 6 15.5V17C6 17.1031 6.0855 17.1875 6.19 17.1875H24.81C24.9145 17.1875 25 17.1031 25 17V15.5C25 15.3969 24.9145 15.3125 24.81 15.3125Z" fill="white"/>
</svg>
