<svg width="32" height="32" viewBox="0 0 32 32" fill="none" xmlns="http://www.w3.org/2000/svg">
<path d="M22.8154 19.5132C24.4493 17.5313 25.1812 15.074 24.8645 12.6329C24.5478 10.1919 23.2059 7.94723 21.1073 6.34792C19.0087 4.7486 16.3082 3.91263 13.546 4.00724C10.7838 4.10185 8.1637 5.12006 6.20978 6.85818C4.25587 8.5963 3.1123 10.9261 3.00784 13.3816C2.90339 15.837 3.84576 18.237 5.64642 20.1013C7.44708 21.9656 9.97323 23.1568 12.7195 23.4366C15.4658 23.7164 18.2296 23.0641 20.458 21.6102H20.4564C20.507 21.6702 20.561 21.7272 20.6217 21.7827L27.1184 27.5577C27.4348 27.8392 27.864 27.9974 28.3116 27.9975C28.7593 27.9977 29.1886 27.8397 29.5052 27.5585C29.8219 27.2772 29.9998 26.8957 30 26.4978C30.0002 26.0998 29.8225 25.7182 29.5061 25.4367L23.0095 19.6617C22.9491 19.6074 22.8842 19.5573 22.8154 19.5117V19.5132ZM23.2508 13.7472C23.2508 14.8306 23.0107 15.9034 22.5443 16.9044C22.0779 17.9053 21.3943 18.8148 20.5324 19.5809C19.6706 20.3469 18.6475 20.9546 17.5215 21.3692C16.3955 21.7838 15.1886 21.9972 13.9699 21.9972C12.7511 21.9972 11.5442 21.7838 10.4182 21.3692C9.2922 20.9546 8.26908 20.3469 7.40726 19.5809C6.54545 18.8148 5.86183 17.9053 5.39542 16.9044C4.92901 15.9034 4.68895 14.8306 4.68895 13.7472C4.68895 11.5592 5.66676 9.46077 7.40726 7.91359C9.14777 6.36642 11.5084 5.49722 13.9699 5.49722C16.4313 5.49722 18.7919 6.36642 20.5324 7.91359C22.2729 9.46077 23.2508 11.5592 23.2508 13.7472Z" fill="white"/>
</svg>
