<svg width="23" height="24" viewBox="0 0 23 24" fill="none" xmlns="http://www.w3.org/2000/svg">
<path d="M11.5 1.5C12.5893 1.5 13.634 1.89509 14.4042 2.59835C15.1744 3.30161 15.6071 4.25544 15.6071 5.25V6H7.39286V5.25C7.39286 4.25544 7.82557 3.30161 8.59581 2.59835C9.36605 1.89509 10.4107 1.5 11.5 1.5ZM17.25 6V5.25C17.25 3.85761 16.6442 2.52226 15.5659 1.53769C14.4875 0.553123 13.025 0 11.5 0C9.97501 0 8.51247 0.553123 7.43414 1.53769C6.3558 2.52226 5.75 3.85761 5.75 5.25V6H0V21C0 21.7956 0.346173 22.5587 0.962363 23.1213C1.57855 23.6839 2.41429 24 3.28571 24H19.7143C20.5857 24 21.4214 23.6839 22.0376 23.1213C22.6538 22.5587 23 21.7956 23 21V6H17.25ZM1.64286 7.5H21.3571V21C21.3571 21.3978 21.1841 21.7794 20.876 22.0607C20.5679 22.342 20.15 22.5 19.7143 22.5H3.28571C2.85 22.5 2.43213 22.342 2.12404 22.0607C1.81594 21.7794 1.64286 21.3978 1.64286 21V7.5Z" fill="white"/>
</svg>
