<svg width="24" height="21" viewBox="0 0 24 21" fill="none" xmlns="http://www.w3.org/2000/svg">
<path d="M7.539 21C16.596 21 21.5505 12.9187 21.5505 5.9228C21.5505 5.69666 21.5505 5.46729 21.5415 5.24115C22.5061 4.4892 23.3386 3.55825 24 2.49191C23.099 2.91972 22.1441 3.20168 21.1665 3.32863C22.1963 2.66578 22.9676 1.62283 23.337 0.393637C22.3695 1.01088 21.3105 1.44418 20.2065 1.67457C19.4643 0.823345 18.4821 0.259434 17.4121 0.0701857C16.3421 -0.119063 15.2441 0.0769118 14.288 0.627754C13.3319 1.1786 12.5712 2.05356 12.1237 3.11713C11.6761 4.18069 11.5668 5.37349 11.8125 6.51077C9.85461 6.40505 7.93922 5.85733 6.19056 4.90313C4.4419 3.94894 2.89903 2.60957 1.662 0.971914C1.03401 2.13991 0.842361 3.5215 1.12597 4.83614C1.40958 6.15077 2.14718 7.2999 3.189 8.05015C2.40831 8.02159 1.64478 7.79584 0.96 7.39111V7.4638C0.961346 8.68736 1.35496 9.87289 2.07431 10.82C2.79366 11.7671 3.79462 12.4177 4.908 12.6618C4.48539 12.7872 4.04884 12.8497 3.6105 12.8476C3.30148 12.8486 2.99307 12.8178 2.6895 12.7555C3.00418 13.8088 3.61691 14.7297 4.44187 15.3892C5.26683 16.0488 6.2627 16.4139 7.29 16.4336C5.54483 17.9096 3.3891 18.7102 1.17 18.7063C0.778981 18.7081 0.388235 18.6838 0 18.6336C2.25227 20.1799 4.86795 21.0009 7.539 21Z" fill="#F9F9F9"/>
</svg>
