<svg width="24" height="20" viewBox="0 0 24 20" fill="none" xmlns="http://www.w3.org/2000/svg">
<path d="M12.0773 0H12.2108C13.4438 0.00533855 19.6917 0.0587244 21.3763 0.596139C21.8856 0.760154 22.3497 1.07985 22.7222 1.52328C23.0946 1.96671 23.3625 2.51834 23.499 3.12305C23.6505 3.79927 23.757 4.69437 23.829 5.61794L23.844 5.80301L23.877 6.26568L23.889 6.45075C23.9865 8.07723 23.9985 9.6005 24 9.93327V10.0667C23.9985 10.412 23.985 12.0384 23.877 13.7325L23.865 13.9194L23.8515 14.1045C23.7765 15.1223 23.6655 16.1331 23.499 16.8769C23.3629 17.4819 23.0952 18.0338 22.7227 18.4773C22.3501 18.9208 21.8858 19.2403 21.3763 19.4039C19.6362 19.9591 13.0223 19.9982 12.1058 20H11.8927C11.4292 20 9.51209 19.9893 7.50197 19.9075L7.24695 19.8968L7.11645 19.8897L6.85993 19.8772L6.60341 19.8648C4.93831 19.7776 3.35271 19.637 2.62216 19.4021C2.11287 19.2387 1.6487 18.9194 1.27617 18.4763C0.903632 18.0331 0.63581 17.4816 0.499531 16.8769C0.333021 16.1349 0.222014 15.1223 0.147009 14.1045L0.135008 13.9176L0.123008 13.7325C0.0489745 12.5267 0.0079503 11.3184 0 10.1094L0 9.89056C0.00300019 9.50796 0.0150009 8.18578 0.096006 6.72658L0.106507 6.54329L0.111007 6.45075L0.123008 6.26568L0.15601 5.80301L0.171011 5.61794C0.243015 4.69437 0.349522 3.79749 0.501031 3.12305C0.63708 2.5181 0.9048 1.96621 1.27735 1.5227C1.6499 1.0792 2.11419 0.759663 2.62366 0.596139C3.35421 0.364801 4.93981 0.22244 6.60491 0.133464L6.85993 0.121007L7.11794 0.11033L7.24695 0.104992L7.50347 0.0925352C8.93112 0.0380367 10.3594 0.00778159 11.7877 0.0017796H12.0773V0ZM9.6006 5.71225V14.286L15.8365 10.0009L9.6006 5.71225Z" fill="#F9F9F9"/>
</svg>
